<?xml version="1.0" encoding="utf-8"?>
<!-- Generator: Adobe Illustrator 23.1.0, SVG Export Plug-In . SVG Version: 6.00 Build 0)  -->
<svg version="1.1" id="Слой_1" xmlns="http://www.w3.org/2000/svg" xmlns:xlink="http://www.w3.org/1999/xlink" x="0px" y="0px"
	 viewBox="0 0 559.2 720" style="enable-background:new 0 0 559.2 720;" xml:space="preserve">
<g>
	<path d="M278,623.1c-1.8,0-3.3,0.8-4.4,2.3c-1.3,1.7-2,3.7-2,5.9c0,2.6,1,5,2.9,7.3c1.8,2.5,3.9,3.7,6.3,3.7c4.2,0,6.2-2.7,6.2-8.1
		c0-1.3-0.1-2.5-0.4-3.7C285.2,625.6,282.3,623.1,278,623.1z"/>
	<path d="M429.2,704.7c-7.9,7.6-15.7,11.5-23.4,11.5c-4.8,0-7.6-1.4-8.4-4.3c-0.1-0.3-0.2-0.7-0.2-1c0-3.1,2.4-9.4,7.2-19
		c16.9,0,26.3-5,28.3-15.1c0.3-1.1,0.4-2.1,0.4-3.1c0-1.5-0.3-3-0.8-4.4c-2.2-7.6-6.7-11.4-13.5-11.4c-7.5,0-14.8,4-21.9,12
		c-5,5.7-8.2,11.4-9.6,17.2c-9.7,18.8-18.4,28.3-26.1,28.3c-2.2,0-4-0.9-5.3-2.7c-1.4-1.8-2.1-3.9-2.1-6.3c0-3.2,1.2-7.9,3.5-14.1
		l9.3-25c23.9-14.1,39.3-34.2,46.3-60.2c1.1-3.7,1.6-6.9,1.6-9.8c0-1.9-0.3-3.6-0.8-5.2c-1.6-5.3-4.6-8-9-8
		c-4.1,0-9.5,3.7-16.3,11.1c-14.8,16.3-29.1,41.8-42.9,76.4c-2,4.8-3.1,9.5-3.6,14.2c-2.2,3-5.8,4.6-10.7,4.6c-2,0-3.2-0.1-3.7-0.4
		c4.4-5.8,6.6-12.3,6.6-19.4c0-1.6-0.2-3.2-0.6-4.6c-1.3-4.4-3.7-6.5-7-6.5c-2.8,0-5.4,2.1-7.6,6.4c-2.2,4.3-3.3,8.7-3.3,13.3
		c0,5.3,2,9.4,6.1,12.3c-9.8,15.8-18.1,23.7-24.8,23.7c-3.3,0-5.4-1.7-6.4-5c-0.5-1.6-0.8-3.4-0.8-5.2c0-2.6,0.6-5.4,1.9-8.5
		c1.2-2.5,2.3-5,3.3-7.6l12-31.8c22.6-12.5,37-29.1,43.2-50.1c1-3.3,1.5-6.4,1.5-9.2c0-2-0.3-4-0.8-5.8c-1.6-5.3-4.5-8-8.9-8
		c-6.4,0-14.5,6.8-24.4,20.4c-6.5,8.7-12.7,18.6-18.6,29.8c-7.4,13.7-13.5,27.7-18.4,42c-1.8,5.4-2.7,10.4-2.7,14.9
		c0,1.4,0.1,2.7,0.2,4c-8.1,13.4-15.6,20.1-22.5,20.1c-2.1,0-3.2-0.5-3.5-1.5c0-0.1,0-0.3,0-0.6c0-1,0.6-2.8,1.8-5.4l21.7-48.4
		h-16.8l-11.4,24.4c-2.2,4.6-3.7,8.7-4.5,12.4c-1.6,2.7-3.1,5.1-4.4,6.9c-5.9,8.1-11.7,12.2-17.2,12.2c-1.7,0-2.8-0.9-3.3-2.6
		c-0.1-0.4-0.2-0.9-0.2-1.4c0-1.5,0.7-3.9,2.1-7.1l46.2-103.5h-18.1l-29.4,67.1c-2.3-6.6-6.3-9.9-11.8-9.9c-7.8,0-14.7,2.8-20.7,8.3
		c-5.8,5.4-9.7,12.1-11.6,19.9c-3.7,7.1-8.3,13.3-13.9,18.6c-7.9,7.6-15.7,11.5-23.4,11.5c-4.8,0-7.6-1.4-8.4-4.3
		c-0.1-0.3-0.2-0.7-0.2-1c0-3.1,2.4-9.4,7.2-19c16.9,0,26.3-5,28.3-15.1c0.3-1.1,0.4-2.1,0.4-3.1c0-1.5-0.3-3-0.8-4.4
		c-2.2-7.6-6.7-11.4-13.5-11.4c-7.5,0-14.8,4-21.9,12c-7.1,8-10.6,16.2-10.6,24.6c0,3.1,0.4,6.2,1.3,9.4c3.1,10.8,9.4,16.3,19,16.3
		c8.6,0,17-3.9,25-11.7c4-3.9,7.5-8.2,10.5-13c0.1,2.8,0.4,5.4,1.1,7.9c1.4,4.5,3.4,8.3,6.1,11.3c3.2,3.3,6.5,5,9.9,5
		c3.3,0,8.4-2.9,15.3-8.7c1.4-1.1,2.1-2.3,2.1-3.5c0-0.3-0.1-0.6-0.2-0.9c1.2,3.7,3,6.8,5.5,9.4c2.4,2.5,5,3.8,7.9,3.8
		c5.4,0,11.6-4.3,18.5-12.8c0.9-1,1.7-2,2.5-3.1c0.1,1.5,0.3,3,0.7,4.3c2.2,7.4,6.8,11.2,13.7,11.2c7.6,0,15.3-6,22.9-17.9
		c1.6,4.7,4,8.9,7.2,12.5c3.5,3.9,7.2,5.8,11.3,5.8c4.2,0,9.5-3.3,15.9-9.8c4.9-5.2,8.9-10.5,11.8-16.1c2.8,0.6,5,0.9,6.5,0.9
		c3.9,0,7.1-0.9,9.6-2.5c0.1,3,0.6,6.1,1.5,9.1c1.6,5.1,4,9.4,7.4,13c3.3,3.6,7,5.4,11.1,5.4c8.7,0,17-7.3,25-21.8
		c0.2,2,0.6,4,1.1,6c3.1,10.8,9.4,16.3,19,16.3c8.6,0,17-3.9,25-11.7c6.8-6.6,12.3-14.7,16.5-24.1l-2.9-2.4
		C441.1,690.7,435.8,698.3,429.2,704.7z M409.5,681.2c1.6-3.7,3.2-7.4,4.7-11.2c2.4-4.9,4.9-7.4,7.5-7.4c2.6,0,4.3,1.3,5.1,3.9
		c0.3,0.9,0.4,1.9,0.4,2.7c0,1.8-0.5,3.8-1.4,5.9c-1.9,4.8-4.3,8.1-7.1,9.9c-2.8,1.8-6.8,2.7-12,2.7L409.5,681.2z M384.7,619.7
		c9.5-21.6,16.6-32.4,21.4-32.4c3.2,0,4.8,3,4.8,9.1c0,9.6-5,22.3-14.9,38.2c-5.2,8.3-14.3,17.1-27.5,26.2
		C377.2,637.9,382.7,624.2,384.7,619.7z M322.5,617.9c7.9-20.2,14.6-30.2,20.1-30.2c3.7,0,5.6,3.2,5.6,9.5c0,5.9-2.7,13.5-8.1,22.6
		c-4.2,6.9-8.5,12.6-12.8,17.1c-4.8,4.8-10.8,9.5-18,14.1L322.5,617.9z M140.5,681.2c1.6-3.7,3.2-7.4,4.7-11.2
		c2.4-4.9,4.9-7.4,7.5-7.4c2.6,0,4.3,1.3,5.1,3.9c0.3,0.9,0.4,1.9,0.4,2.7c0,1.8-0.5,3.8-1.4,5.9c-1.9,4.8-4.3,8.1-7.1,9.9
		c-2.8,1.8-6.8,2.7-12,2.7L140.5,681.2z M211.7,681.6l-6.7,15.5c-2.2,5.2-4.4,9.6-6.6,13.2c-2.2,3.6-5,5.4-8.5,5.4
		c-1.2,0-2.2-0.2-2.9-0.7c-2-0.9-2.9-2.6-2.9-5c0-2.6,1.8-7.7,5.3-15.3l8.7-18.9c2.1-4.9,3.4-7.8,3.9-8.5c2.1-3.4,4.3-5.1,6.5-5.1
		c4.5,0,6.8,2.7,6.8,8.1C215.2,672.7,214,676.4,211.7,681.6z"/>
	<path d="M201.1,545.3c-0.6,1.3-0.8,2.2-0.6,2.7h13.2h13.1c1.3,0,1.5-1.1-0.4-2.9l-0.5-0.4c-1.5-1.4-2.5-3.2-2.8-5.4
		c-0.2-2.2-0.4-9.4-0.5-21.5v-3.7v-4.5c0.1-2.9,0.1-6.6,0-10.8c0-4.4-0.1-7.8-0.2-10.3c-0.2-2.6-2.6-5.2-4.5-6.8
		c-2.2-2.1-5.2-3.4-8.6-4c-2.9-0.5-6.2-0.4-9.9,0.4c-3.7,0.6-6.7,1.9-9.2,3.8c-2,1.8-3.3,3.2-3.8,4.1c-0.8,1.8-0.9,2-2.2-0.8
		c-2-4.4-7.5-6.8-15.1-7.3c-5.3-0.2-9.7,0.6-13.3,2.5c-2.5,1.3-4.5,3.1-6,5.4h-0.4c-0.1,0-0.1,0-0.1-0.1c-0.1-0.6-0.1-2.1,0-4.5
		c0.1-3.1,0-4.7-0.4-5c-0.4-0.2-1.4-0.1-2.9,0.5c-1.4,0.5-3.5,1.1-4.7,1.3c-2.9,0.5-7.3,1.6-12.5,2.1c-5.2,0.5-5.3,0.5-2,3.4
		c1.9,1.5,1.8,1.5,2.6,2.9c0.9,1.3,1.1,2.8,1.2,5.8c0.1,2.1,0.2,8.3,0.4,18.4c0.1,14.4,0,23-0.2,25.7c-0.4,5.7-1.5,8.3-4.5,10
		c-0.8,0.4-1.4,0.7-1.4,1.1c0,0.5,0.4,0.7,1.2,0.6h12.1h13.6c0.2-0.4,0-1.1-0.7-2.1c-1.7-3.4-1.8-5.1-1.9-22.6
		c0.1-11,0.2-18.2,0.4-21.7c0.1-3.5,0.6-6,1.3-7.5c0.9-1.3,1.9-2.5,3.2-3.8c1.1-0.8,2.6-1.3,4.6-1.5c0.9-0.1,2-0.1,3.1,0.2
		c2.4,0.6,3.3,1.7,3.9,4.4c0.6,2.4,0.8,7.4,0.8,17.3c0.1,15.6,0,25.1-0.4,28.5c-0.1,1.5-0.9,3.8-1.9,5.5c-0.1,0.4-0.6,0.9-1.2,1.5
		c-1.1,1.2-1.4,1.8-1.1,1.8h27.9c1.2-0.1,0.9-0.8-0.6-2.4c-1.1-1.1-1.9-2.4-2.5-4c-0.5-1.2-0.7-2.8-0.8-4.8
		c-0.1-2.1-0.1-8.4-0.1-18.6v-2.1c0-8.4,0-13.7,0.1-16.1c0.1-2.5,0.5-4.2,1.1-5.3c1.3-2.5,3.7-4.1,7.1-5.2c3.2-0.8,6,0.6,7.3,3.4
		c0.9,2.2,1.3,5.1,1.4,11.7c0.1,3.3,0.1,8.5,0.1,15.4c0,9.5-0.1,15.8-0.4,18.6C202.4,541.5,201.9,543.7,201.1,545.3z"/>
	<path d="M266.6,496.1c-0.6,0.1-3.3,1.6-8.1,4.4c-4.8,2.7-8.1,4.7-10,6c-11.8,7.7-16.6,14.7-16.3,24.2c0.1,6.7,4.2,13.6,11.4,17.4
		c3.4,1.5,7.2,2.4,11.3,2.7c1.8,0.1,3.7,0.2,4.1,0.1c0.6-0.1,1.9-0.2,3.8-0.4c3.7-0.5,7.4-1.6,9.9-3.4l2.4-1.5
		c0.5,0.6,1.2,2.4,1.3,2.5h11.2h10.8h0.8c0.5-0.8,0.1-2.2-0.9-2.7c-1.5-0.9-1.9-1.2-2.8-2.8c-0.6-0.9-1.3-2.9-2-5.9
		c-1.1-4.6-2.1-11.9-3.1-21.9c-0.9-10-1.9-17.1-2.7-21.5c-0.7-4.6-2.1-7.8-4.2-9.8c-2.5-2.7-7-4.1-13-5.5c-3.2-0.6-6.8-0.6-11.2,0
		c-4.4,0.6-7.5,1.4-9.8,2.6c-5.8,3.2-8.8,6.2-11.4,11.9c-2.8,6.1-1.4,7,3.5,2.6c2.1-2,4.5-3.5,7-4.4c2.5-1.1,5.5-1.3,9.1-0.9
		c3.7,0.4,6.5,1.4,8.7,3.4C268,494.9,267.9,495.8,266.6,496.1z M269.2,501.1c0.4,0,0.7,1.8,1.2,5.4l0.9,9l1.2,10.6
		c0.4,3.1,0.8,6,1.3,8.7c0.4,2.5,0.5,4,0.2,4.6c-0.2,0.6-1.3,1.3-3.1,2.2c-2.9,1.5-6.5,1.5-9.9,0.1c-2.7-1.4-6.2-5.3-7.4-8.8
		c-0.9-2.7-1.2-5.9-0.7-9.8c0.5-3.9,1.4-7.1,2.9-9.8c1.2-2,3.4-4.6,6.7-7.7C266,502.7,268.1,501.1,269.2,501.1z"/>
	<path d="M341.3,482.6c-0.1,0-0.7-0.5-1.7-1.3c-2.1-1.9-4.5-3.1-8.7-3.5c-2.9-0.5-4.2-0.4-6.5,0.1c-4.7,0.9-7.5,2.7-13.7,7.9
		c-6.2,5.7-9.8,14.9-10.7,27.6c-0.6,14,3.3,26.6,13.6,33.8c6.5,3.8,15,4.5,21.7,1.5c2-1.1,3.7-2.2,5-3.7c1.1-1.2,1.6-1.8,1.8-1.8
		c0.1,0,0.2,0.2,0.1,0.6c0.1,1.8,0.1,3.2,0,4.2h11h11.3c0.4,0,0.5-0.1,0.5-0.5c0.1-0.7-0.4-1.4-1.4-2.1c-1.5-0.9-2.7-2.7-3.4-5.2
		c-0.7-2.6-0.9-19.6-0.6-50.9c0.4-28.6,0.2-51.9-0.4-52.1c-0.5-0.1-2.1,0.2-5.1,1.2c-6.7,2.2-12.7,3.7-18,4.1
		c-0.8,0-1.2,0.2-1.2,0.7c0.1,0.7,0.7,1.3,2,1.8c2,0.6,2.7,1.2,3.8,4.4c0.4,1.1,0.6,2.2,0.7,3.7c0.1,1.4,0.2,13.2,0.4,17.7
		c0.1,5.9,0.1,9.3,0,10.4C341.7,482.2,341.6,482.6,341.3,482.6z M341.7,513.4c0,13.8-0.1,21.1-0.5,21.9c-0.6,1.3-1.6,2.5-3.3,3.8
		c-2.9,2.1-7.1,1.5-9.7-1.5c-3.1-3.3-5.4-9.4-7-18.4c-0.9-7.1-1.1-13.6,0-20.7c1.3-7.2,5.2-12.5,11.7-13.6c3.2-0.6,6.5,2.5,8.2,6.7
		C341.6,492.4,341.8,499.6,341.7,513.4z"/>
	<path d="M397.3,512c19.7,0.2,29.7,0.1,30.3-0.2c0.6-0.4,0.6-2.6-0.1-6.7c-0.7-4.1-1.6-7.5-2.8-10c-2.4-5.2-6-9.5-10.5-12.8
		c-3.2-2.2-7-3.7-11.3-4.2c-5.5-1.1-12.6-0.8-18.2,2.1c-12,6.2-18,17.6-18,33.9c0.1,9.1,3.5,18.7,9.8,25.7
		c4.2,4.6,11.4,8.5,18.4,10.4c2.6,0.7,6.6,0.8,12,0.2c2.5-0.4,5.2-0.8,7.5-1.8c6.1-2,9.1-3.8,13.3-7.9c2.5-2.5,3.2-3.4,3.1-4.2
		c-0.2-0.9-1.1-1.1-2.5-0.5c-0.1,0-2.4,1.2-3.4,1.5c-3.5,1.1-7.1,1.4-10.6,0.8c-4.1-0.6-7.5-1.5-10.4-3.1
		c-8.6-4.4-16.3-12.7-19.2-23C384.7,511.9,388.9,511.9,397.3,512z M383.2,506.2c-0.2-0.4-0.4-2.2-0.4-5.7c0-3.4,0.1-5.7,0.5-6.8
		c1.1-5.3,5.4-8.8,10.6-8.8c4.2,0,7.5,2.6,9.9,7.7c1.2,2.6,2,6.4,2.6,11.2l0.2,2.2l-4.7,0.1c-3.2,0-7.1,0.1-11.7,0.4
		C385.6,506.6,383.3,506.6,383.2,506.2z"/>
	<path d="M247.7,284.9c-0.7,1.8-2,3.2-4.2,4.2c-0.4,0.3-0.5,0.8-0.1,1.2h1.1h22.1c2.6-0.1,1-1.4-0.7-2.3c-1.2-1.2-2.7-3-3.1-4.4
		v-25.7v-17.3c0-4.4-0.3-6.8-0.8-7.2c-0.1-0.1-0.7,0.2-1.9,0.7c-3.6,1.8-8.5,3.1-14.8,3.7l-1,0.2c-1.4,0.3-1.4,0.7,0,1.4
		c0.6,0.2,1.6,0.8,1.9,1.3c0.7,0.8,1.2,1.8,1.4,2.8c0.3,1.7,0.5,8.5,0.6,20.4c0.1,9.1,0.2,14.8,0.1,16.9
		C248.1,282.8,248,284.2,247.7,284.9z"/>
	<path d="M259.9,227c2.5-1.8,4.1-5.2,4-8.3c-0.3-2.7-1.9-5-4-6.6c-2-1.4-5.5-2.6-7.8-1.3c-3.3,1.4-5.8,5.2-5.8,8.6
		c0.2,3.3,2.8,6.4,5.8,7.9C254.4,228.5,257.7,228.4,259.9,227z"/>
	<path d="M295.4,285.8l-4.6-2.2c-2.5-1.2-4.6-2.1-5.9-2.7c-2.9-1.2-8.6-2.7-13.1-2.4c-0.7,0.6-0.7,1.9,2,3.7
		c2.5,1.6,4.8,5.8,5.9,8.8c0.2,0.6,0.4,1,0.6,1.3c0.5,0.5,1.2,0.4,2.2-0.1c0.5-0.4,1.5-0.7,2.9-1.2c1.1-0.5,2.1-0.7,3.1-0.7
		c1,0.1,2.8,0.4,5.4,0.9c1.6,0.3,3.9,0.5,6.9,0.5c3,0.1,5.4-0.1,7.2-0.4c4-0.8,7.6-2.9,10.9-6.2c3.3-3.4,4.8-7.2,4.6-11.2
		c-0.3-9.8-7.2-15.6-19.4-19.1c-12.4-3.7-14.9-4.6-17.1-6.9c-1.8-1.8-2-3.7-0.8-5.9c0.9-2,2.5-3,5.2-3.4c3.5-0.7,7.8,0.8,12.7,4.5
		c3.3,2.6,5.2,3.5,8.7,3.7c3.8,0.4,6,0.2,6.8-0.5c0.7-0.4,0.4-0.8-1.9-3.8c-1.1-1.4-2.2-3.2-3.3-5.2c-1-2-1.8-3.2-2-3.4
		c-0.3-0.3-0.8,0-1.7,0.7c-3.8,2.9-7.2,0.2-12.3,0.2c-4.8-0.8-11.2,0-15.1,2.1c-2.5,1.5-5.6,4.8-7.1,8.5c-1.6,3.4-1.7,7-0.3,10.8
		c0.7,1.9,2.5,4,5.3,6.3c6.7,5.8,21.7,6.7,28.2,11.7c2.5,2,3.3,3.6,3.4,6.5C311.8,287.1,301.3,288.3,295.4,285.8z"/>
	<path d="M131.3,310.3c-2.9,2.7-5.1,5.7-6.7,9c-1.6,3.3-2.5,6.8-2.5,10.6c0,2.1,0.2,4.1,0.7,6c0.5,2,1.5,3.8,3,5.4
		c1.3,1.5,2.7,2.7,4.4,3.5c1.7,0.8,3.5,1.1,5.3,1.2c1.9,0,3.7-0.3,5.4-1c1.7-0.7,3.3-1.7,4.6-3c1.3-1.3,2.4-2.8,3.2-4.4
		c0.8-1.7,1.2-3.5,1.2-5.3c0-2.1-0.5-4.2-1.7-6.4c-1.1-2.1-2.7-3.8-4.8-5.1c2.7-2.6,5.4-4.4,8.2-5.3c2.8-1,5.9-1.4,9.4-1.4
		l-12.5,106.5c5.6,0.1,10.9,0.8,16.1,2c5.2,1.3,10.1,2.9,14.9,4.7c4.8,1.9,9.4,3.9,13.9,6.2c4.5,2.2,8.8,4.3,13.1,6.3
		c4.2,1.9,8.3,3.6,12.3,5c4,1.4,7.9,2.3,11.8,2.5c3.6,0.1,6.8-0.4,9.6-1.3c2.8-0.9,5.3-2.2,7.4-3.7c2.1-1.6,4-3.4,5.5-5.5
		c1.5-2.1,2.8-4.3,3.8-6.5c1-2.2,1.8-4.5,2.3-6.8c0.5-2.3,0.9-4.4,1-6.4c-1.1,0.2-2.7,0.4-5.1,0.5c-2.3,0.1-4.7,0.2-7.3,0.3
		c-2.5,0.1-4.9,0.1-7.2,0.1c-2.3,0-3.9,0-5,0c-2.3,0-5-0.4-8.1-1.1c-3.1-0.7-6.4-1.6-9.9-2.7c-3.5-1.1-7.1-2.3-10.8-3.6
		c-3.7-1.3-7.2-2.6-10.6-3.8c-3.4-1.2-6.6-2.2-9.5-3.1c-2.9-0.9-5.4-1.5-7.4-1.8l12.5-107.5c-1.7-0.2-3.4-0.4-5-0.5
		c-1.7-0.1-3.4-0.2-5.1-0.2c-4.9-0.1-9.7,0.3-14.5,1c-4.8,0.7-9.4,1.8-13.9,3.3c-4.4,1.5-8.5,3.2-12.3,5.4
		C137.5,305.2,134.1,307.6,131.3,310.3z"/>
	<path d="M218.7,329.5c-3.9,1.3-7.3,3-10.1,5.3c-2.8,2.2-5.2,4.9-7.2,8c-2,3.1-3.5,6.4-4.7,10c-1.2,3.6-2,7.3-2.5,11.3
		c-0.5,3.9-0.8,7.8-0.9,11.8c-0.1,6,0.5,10.8,1.8,14.6c1.3,3.7,3.2,6.7,5.9,8.8c2.6,2.1,5.9,3.5,9.8,4.3c3.9,0.8,8.5,1.2,13.7,1.3
		c5.2,0.1,9.7-0.4,13.7-1.4c4-1,7.4-2.4,10.3-4.2c2.9-1.8,5.3-3.9,7.3-6.2c2-2.4,3.6-4.9,4.9-7.5c1.3-2.6,2.3-5.4,3-8.2
		c0.7-2.8,1.2-5.6,1.6-8.2c2.8-0.1,5.7-0.4,8.8-0.8l-0.5,4.5c0,1.6-0.1,3.2-0.3,4.6c-0.2,1.4-0.3,3-0.3,4.6
		c-0.1,3.5,0.4,6.6,1.3,9.4c0.9,2.8,2.3,5.2,4.1,7.3c1.8,2,4.1,3.6,6.8,4.8c2.7,1.1,5.9,1.7,9.6,1.8c6.6,0.1,12.4-0.9,17.2-3.1
		c4.8-2.2,9-5,12.4-8.7c3.4-3.6,6.2-7.8,8.3-12.5c2.1-4.7,3.8-9.5,5-14.6c1.9,0.6,4,1.1,6.3,1.4c-0.4,3-0.7,6-0.7,9.1
		c-0.1,5.6,0.8,10.3,2.6,14.2c1.8,3.9,4.4,7,7.6,9.5c3.2,2.5,7.1,4.3,11.6,5.4c4.5,1.1,9.3,1.8,14.6,1.8c4.8,0.1,9.2-0.4,13.3-1.5
		c4-1.1,7.7-2.5,11.1-4.3c3.4-1.8,6.5-3.8,9.4-6c2.8-2.2,5.5-4.5,8-6.7l-9.7-8.9c-1.7,1-3.4,2-5.4,3.1c-1.9,1.1-4,2.1-6.4,2.9
		c-2.3,0.9-4.9,1.6-7.7,2.2c-2.8,0.6-6,0.8-9.4,0.8c-1.6,0-3.2-0.3-4.7-0.7c-1.5-0.5-2.7-1.2-3.8-2.1c-1.1-1-1.9-2.2-2.5-3.6
		c-0.6-1.5-0.9-3.2-0.9-5.3c0-0.4,0-0.7,0.1-1.1c0-0.4,0.1-0.7,0.1-1.1c2.3-0.2,4.8-0.6,7.7-1.1c2.8-0.5,5.7-1.2,8.6-2
		c2.9-0.8,5.7-1.8,8.5-3c2.8-1.1,5.2-2.4,7.4-3.8c2.1-1.4,3.9-3,5.2-4.7c1.3-1.7,2-3.6,2-5.7c0.1-4-0.4-7.5-1.3-10.6
		c-0.9-3.1-2.5-5.6-4.7-7.7c-2.2-2.1-5.2-3.7-8.9-4.7c-3.7-1.1-8.2-1.7-13.7-1.7c-4.7-0.1-8.9,0.5-12.6,1.7c-3.7,1.2-7,2.9-9.8,5
		c-2.8,2.2-5.3,4.7-7.3,7.7c-1.5,2.3-2.9,4.7-4,7.2c-3-0.1-5.7-0.5-8-1.1c0.1-1.7,0.3-3.3,0.4-4.8c0.1-1.5,0.2-3.1,0.2-4.7
		c0-1.8-0.3-3.5-0.9-5.1c-0.7-1.6-1.6-3-2.7-4.2c-1.2-1.2-2.5-2.1-4.1-2.8c-1.6-0.7-3.3-1.1-5.1-1.1c-2.1,0-3.9,0.4-5.6,1.1
		c-1.7,0.8-3.1,1.9-4.3,3.2c-1.2,1.3-2,2.9-2.6,4.6c-0.6,1.7-0.7,3.5-0.5,5.3c0.4,3.5,1.5,6.6,3.2,9.4c1.7,2.8,4,5.3,6.7,7.6
		c-0.7,3-1.7,6-2.9,9c-1.2,3-2.6,5.7-4.2,8.2c-1.6,2.4-3.4,4.4-5.5,5.9c-2,1.5-4.3,2.3-6.8,2.2c-1,0-1.8-0.2-2.5-0.6
		c-0.7-0.4-1.2-0.9-1.6-1.5c-0.4-0.6-0.6-1.3-0.8-2.1c-0.1-0.8-0.2-1.6-0.2-2.5l6-49.6l-27.7,1l-2.6,21.9c-1.7,0.2-3.4,0.4-5,0.5
		c-2,0.1-3.7,0.2-5.1,0c-0.4-5.3-1.5-9.5-3.3-12.7c-1.8-3.2-4.2-5.6-7.2-7.2c-3-1.7-6.4-2.8-10.4-3.3c-4-0.6-8.2-0.9-12.9-0.9
		C227.1,327.7,222.6,328.3,218.7,329.5z M373.5,357.9c0.7-2.2,1.5-4.2,2.5-5.9c0.9-1.7,2-3.2,3.1-4.2c1.2-1.1,2.4-1.6,3.8-1.6
		c1.5,0,2.4,0.7,2.9,1.9c0.5,1.3,0.8,2.8,1.1,4.6c-0.4,1.5-1.1,3-2.1,4.3c-1,1.4-2.1,2.6-3.4,3.6c-1.3,1.1-2.8,1.9-4.4,2.6
		c-1.6,0.7-3.3,1-5,1.1C372.2,362.3,372.7,360.1,373.5,357.9z M239.9,361.7c-0.1,2.1-0.5,4.5-0.9,7.2c-0.5,2.7-1.2,5.2-2.3,7.5
		c-1.1,2.3-2.5,4.3-4.3,5.9c-1.8,1.6-4,2.4-6.6,2.3c-1.8,0-3.1-0.5-4-1.5c-0.9-1-1.6-2.1-2-3.5c-0.4-1.3-0.6-2.6-0.6-3.9
		c0-1.3,0-2.2,0-2.9c0-1.5,0.2-3.2,0.5-5.3c0.3-2.1,0.8-4.2,1.5-6.4c0.6-2.2,1.5-4.3,2.4-6.3c1-2,2.1-3.7,3.5-5.1
		c1.6,2.1,3.4,4.2,5.6,6.2C234.8,358.1,237.3,360,239.9,361.7z"/>
	<path d="M516,265.8c-14.4-13.1-32.8-11.5-33.5-11.4h-7.7c-0.8-0.1-19.1-1.7-33.5,11.4c-10.8,9.8-16.3,25-16.3,45.2
		c0,29.4,9.9,58.9,20.4,90.1c9.1,27.2,18.6,55.4,21,83.7h-2.6v153.8c0,8.2,6.6,14.9,14.9,14.9c8.2,0,14.9-6.6,14.9-14.9V484.8H491
		c2.5-28.4,11.9-56.5,21-83.7c10.5-31.2,20.4-60.7,20.4-90.1C532.3,290.8,526.9,275.6,516,265.8z M454.4,398
		c-10.2-30.4-19.9-59.2-19.9-87c0-17.3,4.4-30.1,13.1-38c4.1-3.7,8.6-5.9,12.7-7.2c-7.1,6.9-13.9,18.3-13.9,36.6
		c0,25.3,6.3,70.5,12.8,110.4C457.7,407.8,456,402.9,454.4,398z M456.1,302.4c0-20.3,9.7-29.9,16.3-34.2l0.5,167.8
		C465.4,392,456.1,332.1,456.1,302.4z M478,642.7c-3.6,0-6.5-2.9-6.5-6.5c0-3.6,2.9-6.5,6.5-6.5c3.6,0,6.5,2.9,6.5,6.5
		C484.5,639.8,481.6,642.7,478,642.7z M482.6,439.7L482,267.4c7.2,2.1,18.3,8.5,18.3,28.5C500.3,328,490.4,393.1,482.6,439.7z
		 M502.9,398c-2.5,7.4-5,14.8-7.4,22.3c7-43.8,14.3-96,14.3-124.4c0-14.5-4.8-23.6-10.8-29.3c3.5,1.4,7.2,3.4,10.6,6.4
		c8.7,7.9,13.1,20.7,13.1,38C522.7,338.8,513.1,367.6,502.9,398z"/>
	<path d="M93.6,235.6C89.7,235,99.5,349,90,349c-9.9,0-5.4-113.7-9.7-113.7c-6.3,0-0.3,115.3-6.6,115.3h-1.1
		c-6.3,0-1.1-115.3-7.4-115.3c-4.3,0,0.9,113.7-8.9,113.7c-9.5,0,0.3-114-3.6-113.4c-2.5,0.4-4.5,8.3-9.6,93.4
		c-0.6,24.9-3.2,39,5.8,51.2c9,12.1,17.9,15.3,17.3,36.4c-0.6,21.1-1.9,131.1-4.5,150.3C59,586,49.5,624.4,49.5,648.7
		c0,24.3,18.5,27.5,23.7,27.5c5.1,0,23.7-3.2,23.7-27.5c0-24.3-9.6-62.7-12.1-81.8c-2.6-19.2-3.8-129.2-4.5-150.3
		c-0.6-21.1,8.3-24.3,17.3-36.4c9-12.1,6.4-26.2,5.8-51.2C98.1,243.9,96.1,236,93.6,235.6z"/>
	<path d="M396.6,245.3c-4.3,2.3-9.7,2.1-14.5,2.3c-16.8,0.8-34,1-50.7,3c-0.1,0-0.1,0-0.2,0c0,0,0,0,0,0c-0.6,0.1-1.2,0.1-1.8,0.2
		c-0.3,0-0.3,0.4,0,0.5c1.9,0.1,3.9,0.3,5.8,0.4c16,2.3,32.5,3,48.6,4.2c4.8,0.4,10.1,0.3,14.4,2.8c3,1.7,6.6,5.4,5.8,9.3
		c-0.8,4.2-5.7,6.2-9.6,5.8c-1.9-0.1-3.6-0.7-5.2-1.7c-2.5-1.6-2.2-3.7,0.9-6.3c1.8-0.2,2.8-0.7,2.6,1.6c-0.2,1.8,2.5,2.2,2.8,0.4
		c0.2-1.4,0.1-2.4-0.4-3.8c-0.2-0.5-0.6-0.8-1.1-0.9c-4-0.4-7.9,0.2-9.5,4.3c-1.6,4.1,3.9,8,7.1,9.1c7.8,2.8,19.9-1.8,17-12
		c-3.8-13.5-19.4-12.5-30.7-12.9c11.1,0,25.2,0.6,29.2-12c3.2-10.1-8.8-15-16.7-12.4c-3.2,1-8.8,4.7-7.3,8.9
		c1.5,4.2,5.3,4.9,9.3,4.6c0.5,0,1-0.4,1.1-0.9c0.5-1.3,0.7-2.4,0.5-3.8c-0.2-1.8-2.9-1.5-2.8,0.3c0.2,2.3-0.8,1.7-2.6,1.5
		c-3-2.7-3.2-4.8-0.7-6.3c1.6-1,3.4-1.6,5.2-1.6c3.9-0.2,8.7,1.9,9.4,6.1C403.3,240.1,399.6,243.7,396.6,245.3z"/>
	<path d="M157.5,236.2c-0.2,1.4-0.1,2.4,0.4,3.8c0.2,0.5,0.6,0.8,1.1,0.9c4,0.4,7.9-0.2,9.5-4.3c1.6-4.1-3.9-8-7.1-9.1
		c-7.8-2.8-19.9,1.8-17,12c3.8,13.5,19.4,12.5,30.7,12.9c-11.1,0-25.2-0.6-29.2,12c-3.2,10.1,8.8,15,16.7,12.4
		c3.2-1,8.8-4.7,7.3-8.9c-1.5-4.2-5.3-4.9-9.3-4.6c-0.5,0-1,0.4-1.1,0.9c-0.5,1.3-0.7,2.4-0.5,3.8c0.2,1.8,2.9,1.5,2.8-0.3
		c-0.2-2.3,0.8-1.7,2.6-1.5c3,2.7,3.2,4.8,0.7,6.3c-1.6,1-3.4,1.6-5.2,1.6c-3.9,0.2-8.7-1.9-9.4-6.1c-0.7-3.9,2.9-7.5,6-9.1
		c4.3-2.3,9.7-2.1,14.5-2.3c16.8-0.8,34-1,50.7-3c0.1,0,0.1,0,0.2,0c0,0,0,0,0,0c0.6-0.1,1.2-0.1,1.8-0.2c0.3,0,0.3-0.4,0-0.5
		c-1.9-0.1-3.9-0.3-5.8-0.4c-16-2.3-32.5-3-48.6-4.2c-4.8-0.4-10.1-0.3-14.4-2.8c-3-1.7-6.6-5.4-5.8-9.3c0.8-4.2,5.7-6.2,9.6-5.8
		c1.9,0.1,3.6,0.7,5.2,1.7c2.5,1.6,2.2,3.7-0.9,6.3c-1.8,0.2-2.8,0.7-2.6-1.6C160.4,234.8,157.7,234.3,157.5,236.2z"/>
	<path d="M103.4,124.6c-3.1-2.6-6.4-4-9.8-4c-7.3,0-13.8,3.6-19.3,10.9c-4.7,6.1-8.2,13.8-10.5,23l3.6,2c2-8.5,5.1-15.5,9.3-21.1
		c5-6.6,10.9-9.8,17.6-9.8c5.8,0,9.6,3.1,11.5,9.2c0.4,1.7,0.6,3.7,0.6,5.9c0,6.1-2.2,13.2-6.6,21.3c-8.3,15.2-18.5,22.8-30.5,22.8
		c-5.1,0-9.8-1.2-14.1-3.7c-5.2-3.1-8.6-7.6-10.4-13.6c-0.7-2.8-1-5.9-1-9.4c0-12.4,4.9-29.8,14.6-52.1c16.3-0.6,31.6-4.2,45.9-10.8
		c16.3-7.4,27.9-17.3,34.9-29.7c3.1-5.7,4.7-10.9,4.7-15.6c0-1.7-0.2-3.4-0.6-5c-1.4-4.8-4.8-8.5-10.2-11.1c-4.2-2.1-8.5-3.1-13-3.1
		h-3.8c-7.6,0-15.5,1.8-23.8,5.5c-21.7,9.6-39.7,30.4-53.9,62.4C22.5,92.8,12.4,82.7,8.3,68.2c-0.9-2.9-1.3-5.9-1.3-9
		c0-1.6,0.2-3.2,0.5-5c1.8-13.4,10.4-20.1,25.8-20.1c8.2,0,18.8,3.4,31.7,10.3l0.6-3.7c-11.6-7.3-23-10.9-34.2-10.9
		c-8.4,0-15.5,2.2-21.3,6.7C3.4,41.6,0,48.5,0,57.3c0,3.5,0.6,7.1,1.7,10.9c4.6,16.3,16.5,27.6,35.9,34c-5.2,11.7-7.8,23.9-7.8,36.6
		c0,6.1,0.7,11.7,2.1,16.8c1,3.6,3,8,6.1,13.4c7.8,13.5,19.2,20.2,34,20.2c9.8,0,18.3-3.3,25.5-9.8c7.1-6.5,11.5-15,13.4-25.7
		c0.4-2.6,0.6-5.2,0.6-7.7c0-3.9-0.5-7.6-1.5-11.1C108.8,130.5,106.5,127.1,103.4,124.6z M119.2,35c12,0,19.1,3.6,21.1,10.9
		c0.1,0.8,0.2,1.6,0.2,2.5c0,2.4-0.6,5.2-1.8,8.6c-3.1,9.3-10.5,18.2-22.3,26.5c-14.9,10.5-33.5,16.6-55.8,18.4
		C79.4,57.2,98.9,35,119.2,35z"/>
	<path d="M378,100.4c4.6,0,6.8-3.1,6.8-9.2c0-1.4-0.1-2.8-0.4-4.2c-1.6-5.5-4.8-8.2-9.5-8.2c-2,0-3.6,0.9-4.9,2.6
		c-1.5,1.9-2.2,4.1-2.2,6.6c0,2.9,1.1,5.7,3.2,8.2C373,99,375.3,100.4,378,100.4z"/>
	<path d="M557.8,81c-1.9-10-5.7-19.5-10.9-28.1c-5.2-8.5-11.7-16.1-19-22.6c-7.5-6.6-16.1-11.8-25.3-14.9
		c-18.4-6.6-38.4-6.6-56.8-0.7c-9.3,3.2-17.8,8.9-24.2,16.5c-6.5,7.6-10.7,17.2-12.4,27c-1,4.9-1.2,10-0.8,15c0.1,2.5,0.6,5,1.1,7.5
		c0.7,2.4,1.3,4.9,2.3,7.3c1.9,4.7,4.5,9.2,8,13.1c3.5,3.8,7.8,6.8,12.5,8.9c9.4,4.1,19.8,5,29.8,2.5c5-1.2,9.7-3.4,14.1-6.2
		c4.3-2.8,8.1-7,9.4-12.3l-3.8-2.9c-4.2,2.2-7.4,4.6-10.8,6.9c-3.4,2.3-7.2,3.9-11.2,5.1c-4,1.1-8.1,1.7-12.3,1.7l-3.1-0.1l-3.1-0.4
		l-3.1-0.6l-2.9-0.9c-3.9-1.4-7.5-3.5-10.6-6.4c-3-3-5.4-6.6-7.1-10.6c-0.9-2-1.5-4.1-2.1-6.2c-0.4-2.2-0.8-4.4-0.9-6.6
		c-0.3-4.4-0.2-9,0.7-13.4c0.8-4.4,2.1-8.8,4-12.8c1.9-4,4.3-7.7,7.2-11c5.7-6.7,13.4-11.6,21.6-14.2c16.9-5,35.6-4.5,51.9,1.9
		c1,0.4,2,0.8,3,1.3c1,0.5,2,0.9,3,1.4c1.9,1.1,3.9,2,5.7,3.3c1.9,1.1,3.6,2.5,5.3,3.8c0.9,0.6,1.6,1.4,2.5,2.1
		c0.8,0.7,1.6,1.4,2.4,2.2c6.3,6.3,11.8,13.5,16.1,21.2c4.4,7.7,7.6,16,9.5,24.7c1.8,8.6,2.4,17.6,1.5,26.6c-1,9-3,17.9-6.4,26.5
		c-1.7,4.3-3.6,8.5-5.8,12.6c-1.1,2.1-2.2,4.1-3.4,5.9c-1.1,1.9-2.6,3.6-4,5.4c-5.8,6.9-13.1,12.5-20.9,17.3c-2.9,1.8-5.9,3.4-8.9,5
		l27.2-62.7h-19l-3.7,9.4c-3.1-7.5-8.3-11.2-15.5-11.2c-5.3,0-10.7,1.8-16.4,5.5c-5,3.4-9.2,7.5-12.4,12.3c-2.6,3.8-4.5,7.8-5.6,12
		c-11.6,24.4-22,36.6-31.3,36.6c-1.6,0-2.5-0.6-2.8-1.8c0-0.1,0-0.4,0-0.6c0-2.4,2.6-8.8,7.9-19.5c2.4-5,4-9.6,4.9-13.8
		c0.3-1.5,0.4-3,0.4-4.4c0-3.1-0.5-6.3-1.4-9.8c-2.7-9.8-6.8-14.7-12.3-14.7c-2.1,0-4,0.3-5.5,0.9c-3.9,3.1-6.8,5.6-8.8,7.6
		c-2,2-3.4,4.2-4.2,6.6l5.7-15.1h-18l-24,55c-5,5.4-9.8,8.2-14.4,8.2c-2.3,0-3.6-0.6-3.8-1.7c0-0.1,0-0.4,0-0.6c0-1.1,0.7-3.2,2-6.1
		l23.7-54.7h-18.5L341,147.3c-1.1,2.4-2,4.7-2.8,6.9c-9.7,19.5-18.8,29.2-27.2,29.2c-1.2,0-1.9-0.6-2.2-1.8V181c0-1.1,0.7-3.4,2-6.7
		c1.5-3.8,2.3-6.8,2.3-9c0-7.3-4.7-12.1-14.2-14.3c2.6-1,4.5-1.8,5.7-2.4c2.1-1,3.8-3,5.1-5.9c1.3-2.8,2.5-5.6,3.6-8.3
		c1.2-2.8,2-4.8,2.6-6.2c0.6-1.1,1.8-2.3,3.8-3.4c-0.9,1.6-1.3,3.3-1.3,5.2c0,1.3,0.2,2.6,0.6,4c1.5,5.2,4.1,7.8,8.1,7.8
		c5,0,7.5-2.9,7.5-8.8c0-1.3-0.2-2.6-0.6-3.9c-1.9-6.6-5.8-9.9-11.7-9.9c-4.1,0-8.2,3.7-12.3,11c-4.6,8.6-7.9,13.5-10,14.6
		c-3.4,2.1-8.3,3.1-14.8,3.1h-1.3l11.2-29.5c1.2-2.9,1.9-4.2,2.7-6.4c0.6-1.8,1.2-3.4,1.8-5.1c1.8-0.6,3.6-1.3,5.3-2
		c7.6-3.2,14.7-7.7,20.9-13.4c1.4-1.3,2.7-2.6,4-4.1c1.2-1.3,2.2-2.6,3.5-4.1c1.4-1.7,2.6-3.6,3.8-5.5c3.3-5.2,5.9-10.9,7.5-16.9
		c0.8-3.2,1.3-6.5,1.3-9.8c0-2.2-0.2-4.2-0.6-6c-1.8-6.4-5.3-9.6-10.4-9.6c-5.5,0-12.8,5.3-21.7,16c-6.8,8.1-12.4,16.6-17,25.3
		c-3.1,6-6.9,14.3-11.4,24.8l-1.8,4.1l-2.4,0.3c-7.6,0.9-15.6,0.7-23.4,0.1c-7.8-0.6-15.7-1.6-23.4-3c-7.7-1.4-15.5-3.2-22.6-5.8
		c-7.1-2.8-13.9-6.7-19.7-11.7c-5.8-5.1-10.4-11.2-13.5-18c-6.1-13.6-5.1-29.9,2-42.8c3.6-6.4,8.9-11.9,15.6-15.2
		c6.7-3.3,14.4-4.6,21.8-4c7.5,0.6,14.8,3.5,21.2,7.6c6.4,4.2,12,9.7,15.5,16.6l1.3,2.6c0.4,0.9,0.7,1.8,1,2.7l0.5,1.3
		c0.1,0.5,0.3,0.9,0.4,1.4l0.7,2.8c0.3,1.9,0.7,3.8,0.8,5.7c0.1,1.9,0.3,3.8,0.3,5.8c0,3.9-0.5,7.6-1.5,11.1
		c-0.5,1.7-1.1,3.4-1.9,4.9c-0.4,0.8-0.8,1.5-1.3,2.2l-0.8,1c-0.2,0.3-0.3,0.8,0.1,1.9l3.4,3.4c2.2,0.5,2.4-1,3.2-1.8
		c0.7-1,1.3-2,1.8-3c1.1-2.1,1.9-4.3,2.5-6.5c1.2-4.4,1.4-8.9,1.2-13.3c-0.1-2.2-0.4-4.3-0.7-6.5c-0.3-2.2-0.9-4.3-1.3-6.4
		c-1.3-4.2-2.8-8.3-5-12c-4.3-7.5-10.5-13.7-17.6-18.3c-3.6-2.2-7.3-4.1-11.3-5.5c-3.9-1.5-8.1-2.5-12.2-2.9
		c-8.3-0.9-16.9,0.3-24.8,3.6c-3.9,1.7-7.7,3.9-11.1,6.6c-3.4,2.8-6.4,6.1-8.9,9.8c-10.1,14.7-11.1,35.5-2.5,51.3
		c4.1,7.9,10.1,14.3,16.8,19.6c6.7,5.2,14.1,9.3,21.9,12.2c7.9,2.8,15.8,4.4,23.8,5.7c8,1.3,16,2.2,24,2.7
		c7.9,0.4,15.8,0.6,23.7-0.4L265,147.1c-2.2,3.2-5.4,4.8-9.9,4.8c-2.1,0-4-0.3-5.5-1c2.1-6.4,3.1-11.8,3.1-16.1c0-5-1.2-8.7-3.7-11
		c-4.1-1.9-7.2-2.8-9.1-2.8c-2.1-1-4.4-2.1-6.6-3.3c-2.3-1.2-4.5-1.8-6.5-1.8c-9.1,0-17.3,5.2-24.5,15.5c-3.2,4.6-5.6,9.3-7.1,14.1
		c-2.1,4.2-5.7,6.3-10.7,6.3c-2.1,0-4-0.3-5.5-1c2.1-6.4,3.1-11.8,3.1-16.1c0-5-1.2-8.7-3.7-11c-4.1-1.9-7.2-2.8-9.1-2.8
		c-2.1-1-4.4-2.1-6.6-3.3c-2.3-1.2-4.5-1.8-6.5-1.8c-9.1,0-17.3,5.2-24.5,15.5c-6.1,8.6-9.1,17.7-9.1,27.2c0,3.5,0.4,6.8,1.2,9.8
		c1.7,5.7,4.6,10.3,8.7,13.8c4.1,3.6,8.5,5.5,13,5.5c6.5,0,12.9-3.8,19.3-11.5c5-5.8,9.2-12.9,12.5-21.3c4.3,0.9,7,1.4,8.3,1.4
		c3.1,0,5.8-0.7,7.9-1.9c-0.1,1.4-0.2,2.8-0.2,4.2c0,3.5,0.4,6.8,1.2,9.8c1.7,5.7,4.6,10.3,8.7,13.8c4.1,3.6,8.5,5.5,13,5.5
		c6.5,0,12.9-3.8,19.3-11.5c5-5.8,9.2-12.9,12.5-21.3c4.3,0.9,7,1.4,8.3,1.4c1.9,0,3.6-0.2,5.1-0.7l-13,30h20.6l13-32.8
		c7.4,0,11.4,0.1,12.1,0.2c1.5,0.3,2.6,1.5,3.1,3.5v0.9c0,1.4-0.5,3.6-1.5,6.5c-1.5,4.1-2.3,7.2-2.3,9.2c0,4.3,1.8,7.9,5.5,10.8
		c3.5,2.9,7.3,4.4,11.4,4.4c7.3,0,14.5-4.8,21.9-14.5c1.1-1.5,2.2-3.1,3.3-4.7c0.1,2,0.3,3.9,0.8,5.6c2.4,8.4,7.4,12.6,15,12.6
		c3,0,6-0.9,9-2.6l-0.4,0.9h18.1c18.1-40.8,32.1-61.3,41.9-61.3c1.4,0,2.3,0.4,2.6,1.3c0,0.1,0,0.3,0,0.4c0,2.1-1.9,7.3-5.8,15.7
		c-4.8,10.4-7.5,17.1-8.1,20.2c-0.1,1-0.2,2.1-0.2,3.3c0,2.7,0.5,5.9,1.6,9.6c2.6,9.2,7,13.8,13.4,13.8c4.1,0,7.9-1.5,11.4-4.6
		c6.8-6,12.9-13.9,18.1-23.9c0.2,3.3,0.8,6.7,1.8,10.1c3.2,11.1,8.2,16.6,14.9,16.6c4.5,0,8.6-1.9,12.3-5.7l-3.2,8.3
		c-23.5,13-37.5,24.3-42.1,33.9c-1,2.1-1.5,4.1-1.5,6.2c0,1.3,0.2,2.6,0.6,4c1.9,6.6,6,9.8,12.3,9.8c7.5,0,16.9-7.1,28-21.3
		c9.1-11.6,16-22.6,20.7-33.1c4.8-2.2,9.5-4.7,14.1-7.4c4-2.5,8-5.1,11.8-8c1.9-1.4,3.7-3,5.6-4.6c0.9-0.8,1.7-1.7,2.6-2.5
		c0.8-0.9,1.8-1.7,2.5-2.6c1.6-1.9,3.2-3.7,4.6-5.8c1.5-2,2.7-4.1,3.9-6.2c2.5-4.1,4.7-8.4,6.8-12.8c4.2-8.8,7.5-18.2,9.2-28
		c0.8-4.9,1.4-10,1.4-15C559.2,91.1,558.8,86,557.8,81z M313.1,71.1c9.1-20.6,16.7-30.9,22.9-30.9c2.8,0,4.7,1.5,5.6,4.6
		c0.4,1.4,0.6,2.8,0.6,4.4c0,2.6-0.5,5.7-1.6,9.2c-1.8,6.6-5.2,13.5-10.3,20.8c-2.4,3.2-5,6.1-7.9,8.8c-5.7,5.3-12.3,9.6-19.5,12.4
		c-0.4,0.2-0.9,0.4-1.4,0.5C306.9,86.1,310.8,76.2,313.1,71.1z M144.5,183.8c-3.9,0-6.6-2.1-7.9-6.4c-0.4-1.7-0.6-3.4-0.6-5
		c0-1,0.1-2,0.2-3.1c0.6-3.6,2-7.6,4.2-12c1.9-3.5,3.7-7.1,5.5-10.8c3-6.7,5.6-12.5,7.9-17.3c2.3-4.9,4.8-7.3,7.5-7.3
		c1.8,0,3.9,1.2,6.3,3.7c-1.7,3.3-2.5,6.8-2.5,10.2c0,2.1,0.3,4,0.8,5.9c0.7,2.9,3.2,6.6,7.7,11C162.7,173.4,153,183.8,144.5,183.8z
		 M215.2,183.8c-3.9,0-6.6-2.1-7.9-6.4c-0.4-1.7-0.6-3.4-0.6-5c0-1,0.1-2,0.2-3.1c0.6-3.6,2-7.6,4.3-12c1.9-3.5,3.7-7.1,5.5-10.8
		c3-6.7,5.6-12.5,7.9-17.3c2.3-4.9,4.8-7.3,7.5-7.3c1.8,0,3.9,1.2,6.3,3.7c-1.7,3.3-2.5,6.8-2.5,10.2c0,2.1,0.3,4,0.8,5.9
		c0.7,2.9,3.2,6.6,7.7,11C233.4,173.4,223.7,183.8,215.2,183.8z M446,239.1c-1.9,0-3.5-0.8-5-2.5c-1.5-1.4-2.3-3.2-2.3-5.2
		c0-7.6,12.2-19.2,36.5-35.1C463.7,224.8,454,239.1,446,239.1z M490.7,160.7c-2.4,5.1-5.5,9.7-9.1,13.8c-4.7,5.3-8.9,8-12.5,8
		c-3.5,0-5.3-2-5.3-6.1c0-2.6,1-6.1,2.9-10.5l13.8-30.7c1.9-4.2,3.2-7,4-8.3c2-2.6,4.4-4,7.3-4c2.4,0,4.5,0.9,6.3,2.7
		c1.8,1.8,2.6,4,2.6,6.5C500.7,137.4,497.4,146.9,490.7,160.7z"/>
	<path d="M188.9,584.2c-8-3.9-15.8-1.9-22.2,5.6c-0.3,0.3-0.6,0.6-1.4,1.3c-0.3-0.6-0.5-1-0.8-1.4c-4.4-5.6-10-8.5-17.2-7.1
		c-7.4,1.4-12.4,5.9-14.8,13c-3.3,9.7-0.1,18.1,6.8,24.7c8.1,7.8,17.1,14.7,25.8,22.2c7.1-5.5,13.8-10.5,20.2-15.8
		c6.6-5.4,12.4-11.5,14.2-20.4C201.4,597.5,196.9,588.1,188.9,584.2z"/>
	<path d="M517.4,501.7c-12.2,0-12.2,18.9,0,18.9C529.6,520.6,529.6,501.7,517.4,501.7z"/>
	<path d="M517.4,539.1c-12.2,0-12.2,18.9,0,18.9C529.6,558,529.6,539.1,517.4,539.1z"/>
	<path d="M517.4,576.5c-12.2,0-12.2,18.9,0,18.9C529.6,595.4,529.6,576.5,517.4,576.5z"/>
	<path d="M38.2,407.1c-12.2,0-12.2,18.9,0,18.9C50.3,426,50.4,407.1,38.2,407.1z"/>
	<path d="M38.2,444.4c-12.2,0-12.2,18.9,0,18.9C50.3,463.4,50.4,444.4,38.2,444.4z"/>
	<path d="M38.2,481.8c-12.2,0-12.2,18.9,0,18.9C50.3,500.7,50.4,481.8,38.2,481.8z"/>
	<path d="M320.8,462.4c1.6,0,2.8-1.3,2.8-2.8s-1.3-2.8-2.8-2.8H117.6c-1.6,0-2.8,1.3-2.8,2.8s1.3,2.8,2.8,2.8H320.8z"/>
	<path d="M436.9,568.5c0-1.6-1.3-2.8-2.8-2.8H230.9c-1.6,0-2.8,1.3-2.8,2.8c0,1.6,1.3,2.8,2.8,2.8h203.2
		C435.6,571.3,436.9,570.1,436.9,568.5z"/>
</g>
</svg>
